<?xml version="1.0" standalone="no"?>
<!DOCTYPE svg PUBLIC "-//W3C//DTD SVG 20010904//EN"
 "http://www.w3.org/TR/2001/REC-SVG-20010904/DTD/svg10.dtd">
<svg version="1.0" xmlns="http://www.w3.org/2000/svg"
 width="196.000000pt" height="196.000000pt" viewBox="0 0 196.000000 196.000000"
 preserveAspectRatio="xMidYMid meet">

<g transform="translate(0.000000,196.000000) scale(0.100000,-0.100000)"
fill="#000000" stroke="none">
<path d="M300 980 l0 -500 685 0 685 0 0 500 0 500 -685 0 -685 0 0 -500z
m827 369 c229 -31 430 -148 505 -294 29 -55 35 -158 14 -221 -44 -133 -200
-249 -408 -306 -71 -20 -107 -23 -253 -23 -146 0 -182 4 -255 23 -205 56 -354
168 -405 304 -23 61 -17 166 13 223 56 110 180 203 339 254 152 49 292 62 450
40z"/>
<path d="M920 1313 c-33 -12 -50 -37 -50 -71 0 -20 8 -44 18 -55 17 -20 16
-20 -32 -13 -27 3 -76 20 -109 36 -67 33 -87 37 -87 16 0 -8 28 -30 63 -48 88
-47 199 -159 220 -222 10 -27 17 -66 17 -86 0 -83 -52 -190 -131 -268 -39 -40
-51 -72 -25 -72 30 0 132 125 163 197 l15 37 29 -60 c16 -32 44 -77 63 -99 28
-33 37 -38 47 -27 9 8 10 17 4 26 -53 69 -95 145 -105 187 -30 124 20 264 140
392 38 41 70 80 70 86 0 19 -20 12 -59 -18 -46 -36 -106 -66 -151 -76 -34 -7
-35 -7 -17 12 32 37 21 95 -24 118 -30 16 -35 17 -59 8z m54 -55 c19 -27 5
-58 -28 -58 -35 0 -52 25 -38 55 14 31 46 32 66 3z m87 -137 c-12 -16 -34 -56
-50 -90 l-29 -61 -26 45 c-15 25 -43 61 -62 80 l-35 35 73 1 c40 1 84 5 98 9
47 15 53 12 31 -19z"/>
</g>
</svg>
